<svg width="15" height="14" viewBox="0 0 15 14" fill="none" xmlns="http://www.w3.org/2000/svg">
<path d="M7.47405 2.42728L7.02274 2.88014C7.27224 3.12878 7.67585 3.12878 7.92535 2.88014L7.47405 2.42728ZM10.7111 1.01598L10.6407 1.65144L10.7111 1.01598ZM13.5434 3.43541L12.947 3.66561L12.947 3.66561L13.5434 3.43541ZM13.5434 6.05645L12.9501 5.81829L13.5434 6.05645ZM7.47405 12.5082L7.07549 13.0081C7.30868 13.194 7.63942 13.194 7.8726 13.0081L7.47405 12.5082ZM4.07583 1.01598L4.1462 1.65144L4.07583 1.01598ZM1.24344 3.43541L1.8399 3.66561L1.8399 3.66561L1.24344 3.43541ZM1.24344 6.05645L1.83677 5.81829H1.83677L1.24344 6.05645ZM7.92535 2.88014C8.13457 2.67164 8.5326 2.32078 9.03272 2.04422C9.53613 1.76584 10.0917 1.59065 10.6407 1.65144L10.7814 0.380515C9.87374 0.28001 9.04684 0.575243 8.41393 0.925227C7.77773 1.27704 7.28559 1.71247 7.02274 1.97441L7.92535 2.88014ZM10.6407 1.65144C11.1835 1.71154 11.6814 2.0043 12.0989 2.41456C12.5177 2.82605 12.8111 3.31354 12.947 3.66561L14.1399 3.20521C13.9386 2.68359 13.5442 2.04201 12.9952 1.50253C12.4449 0.961823 11.6952 0.481701 10.7814 0.380515L10.6407 1.65144ZM12.947 3.66561C13.1411 4.16869 13.2774 5.00291 12.9501 5.81829L14.1368 6.2946C14.6188 5.0938 14.4126 3.91183 14.1399 3.20521L12.947 3.66561ZM12.9501 5.81829C12.9663 5.77805 12.9734 5.77782 12.9263 5.84478C12.889 5.89785 12.8341 5.97016 12.7605 6.06209C12.6138 6.24518 12.41 6.48451 12.1625 6.76541C11.6687 7.32599 11.0174 8.03343 10.3389 8.75135C8.96473 10.2054 7.53815 11.6394 7.07549 12.0083L7.8726 13.0081C8.42152 12.5705 9.91693 11.0595 11.2682 9.62963C11.9525 8.90562 12.6148 8.18644 13.122 7.61067C13.3751 7.3234 13.5937 7.06713 13.7584 6.86157C13.8404 6.75917 13.9135 6.66389 13.9722 6.58039C14.0211 6.5108 14.0925 6.40504 14.1368 6.2946L12.9501 5.81829ZM7.92535 1.97441C7.64548 1.69551 7.10739 1.26254 6.43749 0.916642C5.77223 0.573132 4.90903 0.280464 4.00547 0.380515L4.1462 1.65144C4.69929 1.59019 5.29917 1.76795 5.85083 2.05281C6.39787 2.33527 6.83055 2.68861 7.02274 2.88014L7.92535 1.97441ZM4.00547 0.380515C3.09165 0.481701 2.34195 0.961823 1.79172 1.50253C1.24272 2.04201 0.848288 2.68359 0.646973 3.20521L1.8399 3.66561C1.97578 3.31354 2.26921 2.82605 2.68795 2.41456C3.10545 2.0043 3.60335 1.71154 4.1462 1.65144L4.00547 0.380515ZM0.646973 3.20521C0.374257 3.91183 0.168126 5.0938 0.650104 6.2946L1.83677 5.81829C1.50949 5.00291 1.64574 4.16869 1.8399 3.66561L0.646973 3.20521ZM0.650104 6.2946C0.696034 6.40903 0.770902 6.5172 0.820745 6.58637C0.881228 6.6703 0.95651 6.76588 1.04093 6.86835C1.21043 7.0741 1.43569 7.33048 1.69638 7.61772C2.2189 8.19345 2.90145 8.91257 3.60571 9.63635C4.99913 11.0684 6.53129 12.5742 7.07549 13.0081L7.8726 12.0083C7.40524 11.6357 5.9348 10.1964 4.52216 8.74463C3.82338 8.02648 3.15204 7.31898 2.64325 6.75837C2.38828 6.47743 2.17853 6.23822 2.02784 6.05531C1.95217 5.96345 1.89607 5.89143 1.85814 5.83881C1.80958 5.77141 1.81902 5.77406 1.83677 5.81829L0.650104 6.2946Z" fill="#BEBEBE"/>
</svg>
